<?xml version="1.0" encoding="UTF-8" standalone="no"?>
<!DOCTYPE svg PUBLIC "-//W3C//DTD SVG 1.1//EN" "http://www.w3.org/Graphics/SVG/1.1/DTD/svg11.dtd">
<svg width="168" height="195" viewBox="0 0 168 195" version="1.1" xmlns="http://www.w3.org/2000/svg" xmlns:xlink="http://www.w3.org/1999/xlink" xml:space="preserve" xmlns:serif="http://www.serif.com/" style="fill-rule:evenodd;clip-rule:evenodd;stroke-linejoin:round;stroke-miterlimit:2;">
    <g transform="matrix(0.806379,0,0,0.806379,29.528,21.9214)">
        <g transform="matrix(1.27405,0,0,1.27405,-34.3724,-25.8689)">
            <path d="M79.32,36.98L79.32,187.74L95,174.54L101.59,18.23L79.32,36.98Z" style="fill:url(#_Linear1);fill-rule:nonzero;"/>
        </g>
        <g transform="matrix(1.27405,0,0,1.27405,-34.3724,-25.8689)">
            <path d="M79.32,36.98L57.05,18.23L63.64,174.54L79.32,187.74L79.32,36.98Z" style="fill:url(#_Linear2);fill-rule:nonzero;"/>
        </g>
        <g transform="matrix(1.27405,0,0,1.27405,-34.3724,-25.8689)">
            <path d="M25.19,104.83L33.82,153.87L46.32,138.92L43.86,82.5L25.19,104.83Z" style="fill:url(#_Linear3);fill-rule:nonzero;"/>
        </g>
        <g transform="matrix(1.27405,0,0,1.27405,-34.3724,-25.8689)">
            <path d="M25.19,104.83L0,90.24L16.97,144.1L33.82,153.87L25.19,104.83Z" style="fill:url(#_Linear4);fill-rule:nonzero;"/>
        </g>
        <g transform="matrix(1.27405,0,0,1.27405,-34.3724,-25.8689)">
            <path d="M43.86,82.5L18.69,67.98L0,90.24L25.18,104.83L43.86,82.5Z" style="fill:rgb(153,204,51);fill-rule:nonzero;"/>
        </g>
        <g transform="matrix(1.27405,0,0,1.27405,-34.3724,-25.8689)">
            <path d="M134.82,78.69L124.85,135.19L140.43,126.15L160,64.1L134.82,78.69Z" style="fill:url(#_Linear5);fill-rule:nonzero;"/>
        </g>
        <g transform="matrix(1.27405,0,0,1.27405,-34.3724,-25.8689)">
            <path d="M134.82,78.69L116.14,56.36L113.28,121.36L124.85,135.19L134.82,78.69Z" style="fill:url(#_Linear6);fill-rule:nonzero;"/>
        </g>
        <g transform="matrix(1.27405,0,0,1.27405,-34.3724,-25.8689)">
            <path d="M160,64.1L141.31,41.84L116.14,56.36L134.81,78.69L160,64.1Z" style="fill:rgb(255,225,19);fill-rule:nonzero;"/>
        </g>
        <g transform="matrix(1.27405,0,0,1.27405,-34.3724,-25.8689)">
            <path d="M101.59,18.23L79.32,0L57.05,18.23L79.32,36.98L101.59,18.23Z" style="fill:rgb(243,230,0);fill-rule:nonzero;"/>
        </g>
        <g transform="matrix(1.26925,0,0,1.24011,-55.9244,-27.185)">
            <rect x="15.294" y="0" width="164.182" height="195" style="fill:none;"/>
        </g>
    </g>
    <defs>
        <linearGradient id="_Linear1" x1="0" y1="0" x2="1" y2="0" gradientUnits="userSpaceOnUse" gradientTransform="matrix(0.84,-162.96,162.96,0.84,89.64,184.81)"><stop offset="0" style="stop-color:rgb(98,211,153);stop-opacity:1"/><stop offset="0.51" style="stop-color:rgb(172,216,66);stop-opacity:1"/><stop offset="0.9" style="stop-color:rgb(215,219,10);stop-opacity:1"/><stop offset="1" style="stop-color:rgb(215,219,10);stop-opacity:1"/></linearGradient>
        <linearGradient id="_Linear2" x1="0" y1="0" x2="1" y2="0" gradientUnits="userSpaceOnUse" gradientTransform="matrix(-1.6,-162.13,162.13,-1.6,69.68,178.9)"><stop offset="0" style="stop-color:rgb(11,163,152);stop-opacity:1"/><stop offset="0.5" style="stop-color:rgb(76,163,82);stop-opacity:1"/><stop offset="1" style="stop-color:rgb(118,163,10);stop-opacity:1"/></linearGradient>
        <linearGradient id="_Linear3" x1="0" y1="0" x2="1" y2="0" gradientUnits="userSpaceOnUse" gradientTransform="matrix(-1.9,-67.98,67.98,-1.9,36.6,152.17)"><stop offset="0" style="stop-color:rgb(54,163,130);stop-opacity:1"/><stop offset="0.19" style="stop-color:rgb(54,163,130);stop-opacity:1"/><stop offset="0.54" style="stop-color:rgb(73,164,89);stop-opacity:1"/><stop offset="1" style="stop-color:rgb(118,163,11);stop-opacity:1"/></linearGradient>
        <linearGradient id="_Linear4" x1="0" y1="0" x2="1" y2="0" gradientUnits="userSpaceOnUse" gradientTransform="matrix(2.18,-62.38,62.38,2.18,15.82,153.24)"><stop offset="0" style="stop-color:rgb(38,120,128);stop-opacity:1"/><stop offset="0.51" style="stop-color:rgb(69,122,92);stop-opacity:1"/><stop offset="1" style="stop-color:rgb(113,117,22);stop-opacity:1"/></linearGradient>
        <linearGradient id="_Linear5" x1="0" y1="0" x2="1" y2="0" gradientUnits="userSpaceOnUse" gradientTransform="matrix(13.85,-71.96,71.96,13.85,135.08,135.43)"><stop offset="0" style="stop-color:rgb(176,217,57);stop-opacity:1"/><stop offset="1" style="stop-color:rgb(234,219,4);stop-opacity:1"/></linearGradient>
        <linearGradient id="_Linear6" x1="0" y1="0" x2="1" y2="0" gradientUnits="userSpaceOnUse" gradientTransform="matrix(26.159,-64.7372,64.7372,26.159,107.418,128.145)"><stop offset="0" style="stop-color:rgb(116,175,82);stop-opacity:1"/><stop offset="0.17" style="stop-color:rgb(116,175,82);stop-opacity:1"/><stop offset="0.48" style="stop-color:rgb(153,190,50);stop-opacity:1"/><stop offset="1" style="stop-color:rgb(192,196,10);stop-opacity:1"/></linearGradient>
    </defs>
</svg>
